<svg id="Layer_1" data-name="Layer 1" xmlns="http://www.w3.org/2000/svg" viewBox="0 0 2048 2048"><defs><style>.cls-1{fill:#1572b6;}.cls-2{fill:#35a8db;}.cls-3{fill:#e9e9e8;}.cls-4{fill:#fffffe;}.cls-5{fill:none;}</style></defs><title>css3</title><g id="Layer_1-2" data-name="Layer_1"><g id="_337846024" data-name=" 337846024"><polyline id="_337847128" data-name=" 337847128" class="cls-1" points="116.16 0 118.27 23.67 279.18 1828.47 280.53 1843.52 295.02 1847.53 1017.13 2048 1028.72 2048 1752.8 1847.24 1767.29 1843.23 1768.64 1828.17 1929.73 23.67 1931.84 0 1908.11 0 139.89 0 116.16 0"/><polygon id="_337847104" data-name=" 337847104" class="cls-2" points="1791.91 128 1024 128 1024 1916.48 1647.68 1743.56 1791.91 128"/><polygon id="_337846984" data-name=" 337846984" class="cls-3" points="1023.15 608.48 481.53 834.05 499.5 1057.37 1023.15 833.48 1580.17 595.33 1603.27 366.87 1023.15 608.48"/><polygon id="_337846144" data-name=" 337846144" class="cls-3" points="1023.15 366.88 1027.16 366.88 1031.73 366.88 1036.29 366.88 1040.87 366.88 1045.44 366.88 1050.01 366.88 1054.59 366.88 1059.16 366.88 1063.73 366.88 1068.31 366.88 1072.88 366.88 1077.45 366.88 1082.03 366.88 1086.6 366.88 1091.17 366.88 1095.75 366.88 1100.31 366.88 1104.88 366.88 1109.45 366.88 1114.03 366.88 1118.6 366.88 1123.17 366.88 1127.75 366.88 1132.32 366.88 1136.89 366.88 1141.47 366.88 1146.04 366.88 1150.6 366.88 1155.17 366.88 1159.75 366.88 1164.32 366.88 1168.89 366.88 1173.47 366.88 1178.04 366.88 1182.61 366.88 1187.19 366.88 1191.76 366.88 1196.33 366.88 1200.91 366.88 1205.48 366.88 1210.05 366.88 1214.63 366.88 1219.19 366.88 1223.76 366.88 1228.33 366.88 1232.91 366.88 1237.48 366.88 1242.05 366.88 1246.63 366.88 1251.2 366.88 1255.77 366.88 1260.35 366.88 1264.92 366.88 1269.49 366.88 1274.07 366.88 1278.63 366.88 1283.2 366.88 1287.77 366.88 1292.35 366.88 1296.92 366.88 1301.49 366.88 1306.07 366.88 1310.64 366.88 1315.21 366.88 1319.79 366.88 1324.36 366.88 1328.93 366.88 1333.49 366.88 1338.07 366.88 1342.64 366.88 1347.21 366.88 1351.79 366.88 1356.36 366.88 1360.93 366.88 1365.51 366.88 1370.08 366.88 1374.65 366.88 1379.23 366.88 1383.8 366.88 1388.37 366.88 1392.95 366.88 1397.51 366.88 1402.08 366.88 1406.65 366.88 1411.23 366.88 1415.8 366.88 1420.37 366.88 1424.95 366.88 1429.52 366.88 1434.09 366.88 1438.67 366.88 1443.24 366.88 1447.81 366.88 1452.37 366.88 1456.95 366.88 1461.52 366.88 1466.09 366.88 1470.67 366.88 1475.24 366.88 1479.81 366.88 1484.39 366.88 1488.96 366.88 1493.53 366.88 1498.11 366.88 1502.68 366.88 1507.25 366.88 1511.83 366.88 1516.39 366.88 1520.96 366.88 1525.53 366.88 1530.11 366.88 1534.68 366.88 1539.25 366.88 1543.83 366.88 1548.4 366.88 1552.97 366.88 1557.55 366.88 1562.12 366.88 1566.69 366.88 1571.27 366.88 1575.84 366.88 1580.4 366.88 1584.97 366.88 1589.55 366.88 1594.12 366.88 1598.69 366.88 1603.27 366.88 1598.69 412.1 1594.12 457.32 1589.55 502.53 1584.97 547.76 1580.4 592.98 1580.17 595.33 1580.17 595.33 1575.84 595.33 1571.27 595.33 1566.69 595.33 1562.12 595.33 1557.55 595.33 1552.97 595.33 1548.4 595.33 1543.83 595.33 1539.25 595.33 1534.68 595.33 1530.11 595.33 1525.53 595.33 1520.96 595.33 1516.39 595.33 1511.83 595.33 1507.25 595.33 1502.68 595.33 1498.11 595.33 1493.53 595.33 1488.96 595.33 1484.39 595.33 1479.81 595.33 1475.24 595.33 1470.67 595.33 1466.09 595.33 1461.52 595.33 1456.95 595.33 1452.37 595.33 1447.81 595.33 1443.24 595.33 1438.67 595.33 1434.09 595.33 1429.52 595.33 1424.95 595.33 1420.37 595.33 1415.8 595.33 1411.23 595.33 1406.65 595.33 1402.08 595.33 1397.51 595.33 1392.95 595.33 1388.37 595.33 1383.8 595.33 1379.23 595.33 1374.65 595.33 1370.08 595.33 1365.51 595.33 1360.93 595.33 1356.36 595.33 1351.79 595.33 1347.21 595.33 1342.64 595.33 1338.07 595.33 1333.49 595.33 1328.93 595.33 1324.36 595.33 1319.79 595.33 1315.21 595.33 1310.64 595.33 1306.07 595.33 1301.49 595.33 1296.92 595.33 1292.35 595.33 1287.77 595.33 1283.2 595.33 1278.63 595.33 1274.07 595.33 1269.49 595.33 1264.92 595.33 1260.35 595.33 1255.77 595.33 1251.2 595.33 1246.63 595.33 1242.05 595.33 1237.48 595.33 1232.91 595.33 1228.33 595.33 1223.76 595.33 1219.19 595.33 1214.63 595.33 1210.05 595.33 1205.48 595.33 1200.91 595.33 1196.33 595.33 1191.76 595.33 1187.19 595.33 1182.61 595.33 1178.04 595.33 1173.47 595.33 1168.89 595.33 1164.32 595.33 1159.75 595.33 1155.17 595.33 1150.6 595.33 1146.04 595.33 1141.47 595.33 1136.89 595.33 1132.32 595.33 1127.75 595.33 1123.17 595.33 1118.6 595.33 1114.03 595.33 1109.45 595.33 1104.88 595.33 1100.31 595.33 1095.75 595.33 1091.17 595.33 1086.6 595.33 1082.03 595.33 1077.45 595.33 1072.88 595.33 1068.31 595.33 1063.73 595.33 1059.16 595.33 1054.72 595.33 1054.59 595.33 1050.01 595.33 1045.44 595.33 1040.87 595.33 1036.29 595.33 1031.73 595.33 1027.16 595.33 1023.81 595.33 1023.15 595.33 1022.59 595.33 1018.01 595.33 1013.44 595.33 1008.87 595.33 1004.29 595.33 999.72 595.33 995.15 595.33 990.58 595.33 986 595.33 981.43 595.33 976.86 595.33 972.29 595.33 967.72 595.33 963.14 595.33 958.57 595.33 954 595.33 949.43 595.33 944.86 595.33 940.28 595.33 935.71 595.33 931.14 595.33 926.57 595.33 921.99 595.33 917.42 595.33 912.85 595.33 908.28 595.33 903.7 595.33 899.13 595.33 894.56 595.33 889.99 595.33 885.41 595.33 880.84 595.33 876.27 595.33 871.7 595.33 867.13 595.33 862.55 595.33 857.98 595.33 853.41 595.33 848.84 595.33 844.26 595.33 839.69 595.33 835.12 595.33 830.55 595.33 825.98 595.33 821.4 595.33 816.83 595.33 812.26 595.33 807.68 595.33 803.11 595.33 798.54 595.33 793.97 595.33 789.4 595.33 784.82 595.33 780.25 595.33 775.68 595.33 771.11 595.33 766.53 595.33 761.96 595.33 757.39 595.33 752.82 595.33 748.25 595.33 743.67 595.33 739.1 595.33 734.53 595.33 729.96 595.33 725.38 595.33 720.81 595.33 716.24 595.33 711.66 595.33 707.1 595.33 702.52 595.33 697.95 595.33 693.38 595.33 688.8 595.33 684.23 595.33 679.66 595.33 675.09 595.33 670.52 595.33 665.94 595.33 661.37 595.33 656.8 595.33 652.23 595.33 647.65 595.33 643.08 595.33 638.51 595.33 633.94 595.33 629.37 595.33 624.79 595.33 620.22 595.33 615.65 595.33 611.08 595.33 606.5 595.33 601.93 595.33 597.36 595.33 592.79 595.33 588.21 595.33 583.64 595.33 579.07 595.33 574.5 595.33 569.92 595.33 565.35 595.33 560.78 595.33 556.21 595.33 551.64 595.33 547.06 595.33 542.49 595.33 537.92 595.33 533.35 595.33 528.77 595.33 524.2 595.33 519.63 595.33 515.06 595.33 510.48 595.33 505.91 595.33 501.34 595.33 496.77 595.33 492.19 595.33 487.62 595.33 483.05 595.33 478.48 595.33 473.91 595.33 469.33 595.33 464.76 595.33 460.99 595.33 460.19 588.87 455.62 551.86 451.05 514.87 446.47 477.86 441.9 440.87 437.33 403.88 432.76 366.88 437.33 366.88 441.9 366.88 446.47 366.88 451.05 366.88 455.62 366.88 460.19 366.88 464.76 366.88 469.33 366.88 473.91 366.88 478.48 366.88 483.05 366.88 487.62 366.88 492.19 366.88 496.77 366.88 501.34 366.88 505.91 366.88 510.48 366.88 515.06 366.88 519.63 366.88 524.2 366.88 528.77 366.88 533.35 366.88 537.92 366.88 542.49 366.88 547.06 366.88 551.64 366.88 556.21 366.88 560.78 366.88 565.35 366.88 569.92 366.88 574.5 366.88 579.07 366.88 583.64 366.88 588.21 366.88 592.79 366.88 597.36 366.88 601.93 366.88 606.5 366.88 611.08 366.88 615.65 366.88 620.22 366.88 624.79 366.88 629.37 366.88 633.94 366.88 638.51 366.88 643.08 366.88 647.65 366.88 652.23 366.88 656.8 366.88 661.37 366.88 665.94 366.88 670.52 366.88 675.09 366.88 679.66 366.88 684.23 366.88 688.8 366.88 693.38 366.88 697.95 366.88 702.52 366.88 707.1 366.88 711.66 366.88 716.24 366.88 720.81 366.88 725.38 366.88 729.96 366.88 734.53 366.88 739.1 366.88 743.67 366.88 748.25 366.88 752.82 366.88 757.39 366.88 761.96 366.88 766.53 366.88 771.11 366.88 775.68 366.88 780.25 366.88 784.82 366.88 789.4 366.88 793.97 366.88 798.54 366.88 803.11 366.88 807.68 366.88 812.26 366.88 816.83 366.88 821.4 366.88 825.98 366.88 830.55 366.88 835.12 366.88 839.69 366.88 844.26 366.88 848.84 366.88 853.41 366.88 857.98 366.88 862.55 366.88 867.13 366.88 871.7 366.88 876.27 366.88 880.84 366.88 885.41 366.88 889.99 366.88 894.56 366.88 899.13 366.88 903.7 366.88 908.28 366.88 912.85 366.88 917.42 366.88 921.99 366.88 926.57 366.88 931.14 366.88 935.71 366.88 940.28 366.88 944.86 366.88 949.43 366.88 954 366.88 958.57 366.88 963.14 366.88 967.72 366.88 972.29 366.88 976.86 366.88 981.43 366.88 986 366.88 990.58 366.88 995.15 366.88 999.72 366.88 1004.29 366.88 1008.87 366.88 1013.44 366.88 1018.01 366.88 1022.59 366.88 1023.15 366.88"/><polygon id="_337846384" data-name=" 337846384" class="cls-3" points="482.37 834.08 1560.49 834.08 1540.85 1059.95 500.33 1057.37 482.37 834.08"/><polygon id="_337846192" data-name=" 337846192" class="cls-3" points="516.05 1183.19 751.89 1183.28 767.28 1367.96 1023.15 1431.41 1285.83 1357.69 1303.6 1055.68 1541.55 1051.95 1498.88 1542.51 1024 1681.13 545.7 1539.95 516.05 1183.19"/><polygon id="_337846792" data-name=" 337846792" class="cls-4" points="1024 833.11 1580.17 595.33 1603.27 366.87 1024 608.12 1024 833.11"/><polygon id="_337846480" data-name=" 337846480" class="cls-4" points="1024 366.88 1027.16 366.88 1031.73 366.88 1036.29 366.88 1040.87 366.88 1045.44 366.88 1050.01 366.88 1054.59 366.88 1059.16 366.88 1063.73 366.88 1068.31 366.88 1072.88 366.88 1077.45 366.88 1082.03 366.88 1086.6 366.88 1091.17 366.88 1095.75 366.88 1100.31 366.88 1104.88 366.88 1109.45 366.88 1114.03 366.88 1118.6 366.88 1123.17 366.88 1127.75 366.88 1132.32 366.88 1136.89 366.88 1141.47 366.88 1146.04 366.88 1150.6 366.88 1155.17 366.88 1159.75 366.88 1164.32 366.88 1168.89 366.88 1173.47 366.88 1178.04 366.88 1182.61 366.88 1187.19 366.88 1191.76 366.88 1196.33 366.88 1200.91 366.88 1205.48 366.88 1210.05 366.88 1214.63 366.88 1219.19 366.88 1223.76 366.88 1228.33 366.88 1232.91 366.88 1237.48 366.88 1242.05 366.88 1246.63 366.88 1251.2 366.88 1255.77 366.88 1260.35 366.88 1264.92 366.88 1269.49 366.88 1274.07 366.88 1278.63 366.88 1283.2 366.88 1287.77 366.88 1292.35 366.88 1296.92 366.88 1301.49 366.88 1306.07 366.88 1310.64 366.88 1315.21 366.88 1319.79 366.88 1324.36 366.88 1328.93 366.88 1333.49 366.88 1338.07 366.88 1342.64 366.88 1347.21 366.88 1351.79 366.88 1356.36 366.88 1360.93 366.88 1365.51 366.88 1370.08 366.88 1374.65 366.88 1379.23 366.88 1383.8 366.88 1388.37 366.88 1392.95 366.88 1397.51 366.88 1402.08 366.88 1406.65 366.88 1411.23 366.88 1415.8 366.88 1420.37 366.88 1424.95 366.88 1429.52 366.88 1434.09 366.88 1438.67 366.88 1443.24 366.88 1447.81 366.88 1452.37 366.88 1456.95 366.88 1461.52 366.88 1466.09 366.88 1470.67 366.88 1475.24 366.88 1479.81 366.88 1484.39 366.88 1488.96 366.88 1493.53 366.88 1498.11 366.88 1502.68 366.88 1507.25 366.88 1511.83 366.88 1516.39 366.88 1520.96 366.88 1525.53 366.88 1530.11 366.88 1534.68 366.88 1539.25 366.88 1543.83 366.88 1548.4 366.88 1552.97 366.88 1557.55 366.88 1562.12 366.88 1566.69 366.88 1571.27 366.88 1575.84 366.88 1580.4 366.88 1584.97 366.88 1589.55 366.88 1594.12 366.88 1598.69 366.88 1603.27 366.88 1598.69 412.1 1594.12 457.32 1589.55 502.53 1584.97 547.76 1580.4 592.98 1580.17 595.33 1580.17 595.33 1575.84 595.33 1571.27 595.33 1566.69 595.33 1562.12 595.33 1557.55 595.33 1552.97 595.33 1548.4 595.33 1543.83 595.33 1539.25 595.33 1534.68 595.33 1530.11 595.33 1525.53 595.33 1520.96 595.33 1516.39 595.33 1511.83 595.33 1507.25 595.33 1502.68 595.33 1498.11 595.33 1493.53 595.33 1488.96 595.33 1484.39 595.33 1479.81 595.33 1475.24 595.33 1470.67 595.33 1466.09 595.33 1461.52 595.33 1456.95 595.33 1452.37 595.33 1447.81 595.33 1443.24 595.33 1438.67 595.33 1434.09 595.33 1429.52 595.33 1424.95 595.33 1420.37 595.33 1415.8 595.33 1411.23 595.33 1406.65 595.33 1402.08 595.33 1397.51 595.33 1392.95 595.33 1388.37 595.33 1383.8 595.33 1379.23 595.33 1374.65 595.33 1370.08 595.33 1365.51 595.33 1360.93 595.33 1356.36 595.33 1351.79 595.33 1347.21 595.33 1342.64 595.33 1338.07 595.33 1333.49 595.33 1328.93 595.33 1324.36 595.33 1319.79 595.33 1315.21 595.33 1310.64 595.33 1306.07 595.33 1301.49 595.33 1296.92 595.33 1292.35 595.33 1287.77 595.33 1283.2 595.33 1278.63 595.33 1274.07 595.33 1269.49 595.33 1264.92 595.33 1260.35 595.33 1255.77 595.33 1251.2 595.33 1246.63 595.33 1242.05 595.33 1237.48 595.33 1232.91 595.33 1228.33 595.33 1223.76 595.33 1219.19 595.33 1214.63 595.33 1210.05 595.33 1205.48 595.33 1200.91 595.33 1196.33 595.33 1191.76 595.33 1187.19 595.33 1182.61 595.33 1178.04 595.33 1173.47 595.33 1168.89 595.33 1164.32 595.33 1159.75 595.33 1155.17 595.33 1150.6 595.33 1146.04 595.33 1141.47 595.33 1136.89 595.33 1132.32 595.33 1127.75 595.33 1123.17 595.33 1118.6 595.33 1114.03 595.33 1109.45 595.33 1104.88 595.33 1100.31 595.33 1095.75 595.33 1091.17 595.33 1086.6 595.33 1082.03 595.33 1077.45 595.33 1072.88 595.33 1068.31 595.33 1063.73 595.33 1059.16 595.33 1054.72 595.33 1054.59 595.33 1050.01 595.33 1045.44 595.33 1040.87 595.33 1036.29 595.33 1031.73 595.33 1027.16 595.33 1024 595.33 1024 366.88"/><polygon id="_337845784" data-name=" 337845784" class="cls-4" points="1024 834.08 1560.49 834.08 1540.85 1059.95 1024 1058.67 1024 834.08"/><polygon id="_337845328" data-name=" 337845328" class="cls-4" points="1024 1431.17 1285.83 1357.69 1303.6 1055.68 1541.55 1051.95 1498.88 1542.51 1024 1681.13 1024 1681.12 1024 1431.17"/></g></g><rect class="cls-5" width="2048" height="2048"/></svg>